<svg xmlns="http://www.w3.org/2000/svg" width="120" height="24" fill="none"><path fill="#E2A03F" stroke="#E2A03F" d="M10.144 6.628c.786-1.961 1.18-2.942 1.856-2.942.676 0 1.07.98 1.856 2.942l.037.09c.444 1.109.666 1.663 1.12 2 .452.336 1.047.39 2.236.496l.214.019c1.946.174 2.92.261 3.127.88.209.62-.514 1.277-1.96 2.591l-.481.44c-.732.665-1.098.997-1.268 1.434a1.997 1.997 0 0 0-.08.25c-.111.454-.004.937.21 1.902l.067.3c.393 1.775.59 2.662.247 3.045a1 1 0 0 1-.481.296c-.496.136-1.2-.438-2.61-1.587-.925-.753-1.388-1.13-1.919-1.215a1.997 1.997 0 0 0-.63 0c-.532.085-.994.462-1.92 1.215-1.408 1.149-2.113 1.723-2.609 1.587a1 1 0 0 1-.48-.296c-.344-.383-.147-1.27.246-3.044l.067-.301c.214-.966.321-1.448.21-1.903a1.997 1.997 0 0 0-.08-.25c-.17-.436-.536-.768-1.268-1.434l-.482-.439c-1.445-1.314-2.168-1.972-1.96-2.59.209-.62 1.182-.707 3.128-.881l.214-.02c1.19-.106 1.784-.159 2.237-.496.453-.336.675-.89 1.12-1.998l.036-.091ZM34.144 6.628c.786-1.961 1.18-2.942 1.856-2.942.676 0 1.07.98 1.856 2.942l.037.09c.444 1.109.666 1.663 1.12 2 .452.336 1.047.39 2.236.496l.214.019c1.946.174 2.92.261 3.127.88.208.62-.514 1.277-1.96 2.591l-.481.44c-.732.665-1.098.997-1.268 1.434a1.997 1.997 0 0 0-.08.25c-.111.454-.004.937.21 1.902l.067.3c.393 1.775.59 2.662.247 3.045a1 1 0 0 1-.481.296c-.496.136-1.2-.438-2.61-1.587-.925-.753-1.388-1.13-1.919-1.215a1.997 1.997 0 0 0-.63 0c-.532.085-.994.462-1.92 1.215-1.408 1.149-2.113 1.723-2.609 1.587a1 1 0 0 1-.48-.296c-.344-.383-.147-1.27.246-3.044l.067-.301c.214-.966.321-1.448.21-1.903a2.014 2.014 0 0 0-.08-.25c-.17-.436-.536-.768-1.268-1.434l-.482-.439c-1.445-1.314-2.168-1.972-1.96-2.59.209-.62 1.182-.707 3.128-.881l.214-.02c1.19-.106 1.784-.159 2.237-.496.453-.336.675-.89 1.12-1.998l.036-.091ZM58.144 6.628c.786-1.961 1.18-2.942 1.856-2.942.676 0 1.07.98 1.856 2.942l.037.09c.444 1.109.666 1.663 1.12 2 .452.336 1.047.39 2.236.496l.214.019c1.946.174 2.92.261 3.127.88.209.62-.514 1.277-1.96 2.591l-.481.44c-.732.665-1.098.997-1.268 1.434a1.997 1.997 0 0 0-.08.25c-.111.454-.004.937.21 1.902l.067.3c.393 1.775.59 2.662.247 3.045a1 1 0 0 1-.481.296c-.496.136-1.2-.438-2.61-1.587-.925-.753-1.388-1.13-1.919-1.215a1.997 1.997 0 0 0-.63 0c-.532.085-.994.462-1.92 1.215-1.408 1.149-2.113 1.723-2.609 1.587a1 1 0 0 1-.48-.296c-.344-.383-.148-1.27.246-3.044l.067-.301c.214-.966.321-1.448.21-1.903a2.014 2.014 0 0 0-.08-.25c-.17-.436-.536-.768-1.268-1.434l-.482-.439c-1.445-1.314-2.168-1.972-1.96-2.59.209-.62 1.182-.707 3.127-.881l.215-.02c1.19-.106 1.784-.159 2.237-.496.453-.336.675-.89 1.12-1.998l.036-.091ZM82.144 6.628c.786-1.961 1.18-2.942 1.856-2.942.676 0 1.07.98 1.856 2.942l.037.09c.444 1.109.666 1.663 1.12 2 .452.336 1.047.39 2.236.496l.214.019c1.946.174 2.92.261 3.127.88.209.62-.514 1.277-1.96 2.591l-.481.44c-.732.665-1.098.997-1.268 1.434a1.997 1.997 0 0 0-.08.25c-.111.454-.004.937.21 1.902l.067.3c.393 1.775.59 2.662.247 3.045a1 1 0 0 1-.481.296c-.496.136-1.2-.438-2.61-1.587-.925-.753-1.388-1.13-1.919-1.215a1.997 1.997 0 0 0-.63 0c-.532.085-.994.462-1.92 1.215-1.408 1.149-2.113 1.723-2.609 1.587a1 1 0 0 1-.48-.296c-.344-.383-.148-1.27.246-3.044l.067-.301c.214-.966.321-1.448.21-1.903a2.014 2.014 0 0 0-.08-.25c-.17-.436-.536-.768-1.268-1.434l-.482-.439c-1.445-1.314-2.168-1.972-1.96-2.59.209-.62 1.182-.707 3.127-.881l.215-.02c1.19-.106 1.784-.159 2.237-.496.453-.336.675-.89 1.12-1.998l.036-.091Z"/><path stroke="#E2A03F" d="M106.144 6.628c.786-1.961 1.18-2.942 1.856-2.942.676 0 1.07.98 1.856 2.942l.037.09c.444 1.109.666 1.663 1.119 2 .453.336 1.048.39 2.236.496l.215.019c1.946.174 2.919.261 3.127.88.209.62-.514 1.277-1.959 2.591l-.482.44c-.732.665-1.098.997-1.268 1.434a1.98 1.98 0 0 0-.079.25c-.112.454-.005.937.209 1.902l.067.3c.393 1.775.59 2.662.247 3.045a1.005 1.005 0 0 1-.481.296c-.496.136-1.201-.438-2.61-1.587-.925-.753-1.388-1.13-1.919-1.215a1.993 1.993 0 0 0-.63 0c-.531.085-.994.462-1.919 1.215-1.409 1.149-2.114 1.723-2.61 1.587a1.005 1.005 0 0 1-.481-.296c-.343-.383-.146-1.27.247-3.044l.067-.301c.214-.966.321-1.448.209-1.903a1.98 1.98 0 0 0-.079-.25c-.17-.436-.536-.768-1.268-1.434l-.482-.439c-1.445-1.314-2.168-1.972-1.96-2.59.209-.62 1.182-.707 3.128-.881l.214-.02c1.189-.106 1.784-.159 2.237-.496.453-.336.675-.89 1.119-1.998l.037-.091Z"/></svg>